<svg xmlns="http://www.w3.org/2000/svg"  viewBox="0 0 48 48" width="48px" height="48px"><circle cx="24" cy="24" r="20" fill="#f55376"/><circle cx="24" cy="24" r="15" fill="#f5bc00"/><circle cx="24" cy="24" r="17" fill="#fff"/><circle cx="24" cy="24" r="6" fill="#7debf5"/><polygon fill="#7debf5" points="21,12 27,12 25,21 23,21"/><path fill="#f55376" d="M24,11c-7.18,0-13,5.82-13,13s5.82,13,13,13s13-5.82,13-13S31.18,11,24,11z M24,30 c-3.314,0-6-2.686-6-6c0-3.314,2.686-6,6-6s6,2.686,6,6C30,27.314,27.314,30,24,30z"/><circle cx="24" cy="24" r="6" fill="#fff"/><path fill="#fff" d="M14.362,21.366l-0.437-0.134l6.977,2.134l1-1.732L15.57,15.73l1.326,1.236 C15.702,18.171,14.822,19.681,14.362,21.366z"/><path fill="#f55376" d="M14.703,14.922l-1.461-1.362c-1.703,1.755-2.975,3.924-3.661,6.344l1.913,0.585 C12.089,18.363,13.204,16.458,14.703,14.922z"/><path fill="#fff" d="M24,34c0.878,0,1.726-0.125,2.537-0.337l0.528,2.288L25,27h-2l-2.065,8.951l0.528-2.288 C22.274,33.875,23.122,34,24,34z"/><path fill="#f55376" d="M24,37c-1.111,0-2.183-0.154-3.212-0.416l-0.449,1.947C21.513,38.826,22.735,39,24,39 s2.487-0.174,3.661-0.469l-0.449-1.947C26.183,36.846,25.111,37,24,37z"/><path fill="#fff" d="M16.895,31.034l5.007-4.668l-1-1.732l-6.977,2.134l0.437-0.134 C14.822,28.319,15.702,29.829,16.895,31.034z"/><path fill="#f55376" d="M9.581,28.096c0.686,2.419,1.958,4.589,3.661,6.344l1.461-1.362 c-1.499-1.535-2.614-3.441-3.21-5.566L9.581,28.096z"/><path fill="#f55376" d="M24,11c1.111,0,2.183,0.154,3.212,0.416l0.449-1.947C26.487,9.174,25.265,9,24,9 s-2.487,0.174-3.661,0.469l0.449,1.947C21.817,11.154,22.889,11,24,11z"/><path fill="#fff" d="M24,14c-0.878,0-1.726,0.125-2.537,0.337l-0.528-2.288L23,21h2l2.065-8.951l-0.528,2.288 C25.726,14.125,24.878,14,24,14z"/><path fill="#fff" d="M34.075,26.768l-6.977-2.134l-1,1.732l5.007,4.668c1.193-1.205,2.073-2.715,2.533-4.4 L34.075,26.768z"/><path fill="#f55376" d="M33.297,33.078l1.461,1.362c1.703-1.755,2.975-3.924,3.661-6.344l-1.913-0.585 C35.911,29.637,34.796,31.542,33.297,33.078z"/><path fill="#f55376" d="M38.419,19.904c-0.686-2.419-1.958-4.589-3.661-6.344l-1.461,1.362 c1.499,1.535,2.614,3.441,3.21,5.566L38.419,19.904z"/><path fill="#fff" d="M31.105,16.966l1.326-1.236l-6.332,5.904l1,1.732l6.977-2.134l-0.437,0.134 C33.178,19.681,32.298,18.171,31.105,16.966z"/><polygon fill="#2100c4" points="11.493,20.489 13.925,21.232 11.493,20.489"/><polygon fill="#2100c4" points="14.703,14.922 14.703,14.922 15.57,15.73"/><path fill="#eb0000" d="M13.925,21.232l0.437,0.134c0.46-1.685,1.34-3.195,2.533-4.4L15.57,15.73l-0.866-0.808 c-1.499,1.535-2.614,3.441-3.21,5.566L13.925,21.232z"/><polygon fill="#2100c4" points="20.788,11.416 20.935,12.049 20.788,11.416"/><polygon fill="#2100c4" points="27.212,11.416 27.212,11.416 27.065,12.049"/><path fill="#eb0000" d="M20.788,11.416l0.146,0.633l0.528,2.288C22.274,14.125,23.122,14,24,14s1.726,0.125,2.537,0.337 l0.528-2.288l0.146-0.633C26.183,11.154,25.111,11,24,11S21.817,11.154,20.788,11.416z"/><polygon fill="#2100c4" points="11.493,27.511 11.493,27.511 13.925,26.768"/><path fill="#eb0000" d="M14.362,26.634l-0.437,0.134l-2.432,0.744c0.596,2.125,1.711,4.031,3.21,5.566l2.192-2.044 C15.702,29.829,14.822,28.319,14.362,26.634z"/><polygon fill="#2100c4" points="27.212,36.584 27.065,35.951 27.212,36.584"/><polygon fill="#2100c4" points="20.788,36.584 20.788,36.584 20.935,35.951"/><path fill="#eb0000" d="M27.212,36.584l-0.146-0.633l-0.528-2.288C25.726,33.875,24.878,34,24,34s-1.726-0.125-2.537-0.337 l-0.528,2.288l-0.146,0.633C21.817,36.846,22.889,37,24,37S26.183,36.846,27.212,36.584z"/><polygon fill="#2100c4" points="32.43,15.73 33.297,14.922 33.297,14.922"/><polygon fill="#2100c4" points="36.507,20.489 36.507,20.489 34.075,21.232"/><path fill="#eb0000" d="M31.105,16.966c1.193,1.205,2.073,2.715,2.533,4.4l0.437-0.134l2.432-0.744 c-0.596-2.125-1.711-4.031-3.21-5.566L32.43,15.73L31.105,16.966z"/><polygon fill="#2100c4" points="36.507,27.511 34.075,26.768 36.507,27.511"/><path fill="#eb0000" d="M34.075,26.768l-0.437-0.134c-0.46,1.685-1.34,3.195-2.533,4.4l2.192,2.044 c1.499-1.535,2.614-3.441,3.21-5.566L34.075,26.768z"/><rect width="4" height="5" x="22" y="5" fill="#f55376"/><rect width="4" height="5" x="22" y="38" fill="#f55376"/><rect width="4" height="5" x="36.289" y="13.25" fill="#f55376" transform="rotate(60 38.29 15.75)"/><rect width="4" height="5" x="7.711" y="29.75" fill="#f55376" transform="rotate(60 9.711 32.25)"/><rect width="4" height="5" x="36.289" y="29.75" fill="#f55376" transform="rotate(-60 38.29 32.251)"/><rect width="4" height="5" x="7.711" y="13.25" fill="#f55376" transform="rotate(-60 9.71 15.75)"/></svg>